<svg id="Layer_1" data-name="Layer 1" xmlns="http://www.w3.org/2000/svg" viewBox="0 0 512 512"><defs><style>.cls-1,.cls-5{fill:#2e3c5b;}.cls-2{fill:#2169bb;}.cls-3{fill:#009245;}.cls-4{fill:#999;}.cls-5{font-size:82px;font-family:AgencyFB-Bold, Agency FB;font-weight:700;letter-spacing:0.06em;}</style></defs><title>Artboard 1</title><polygon class="cls-1" points="257.01 400.99 94.56 308.17 94.35 119.97 256.59 24.59 419.04 117.4 419.25 305.6 257.01 400.99"/><path class="cls-2" d="M336.66,70.9c-25.49-14.56-51-29.06-76.43-43.76-3.43-2-5.87-2-9.41.06C216.74,47.26,182.5,67.05,148.32,87c-16.94,9.87-33.82,19.83-50.77,29.68-3.11,1.81-3.76,3.05-.08,5.13,18.46,10.4,36.9,20.86,55.17,31.59,3.74,2.2,6.23.55,9-1.08q27.21-15.83,54.38-31.74c12-7,24-14,35.91-21.08,3-1.81,5.41-1.82,8.56,0,30.39,17.53,60.93,34.82,91.31,52.38,3.83,2.22,6.54,2.12,10.33-.15C379,141.59,396,131.93,412.92,122c1.83-1.07,5-1.53,5-3.87,0-2-3-2.49-4.79-3.5Q374.91,92.72,336.66,70.9Z"/><path class="cls-3" d="M255.88,328.38c-31.5-18-63-36.13-94.56-54-3.67-2.08-5-4.4-5-8.59,0-34.91-.28-69.82-.3-104.72,0-3.8-1.17-6-4.48-7.84q-27-15.18-53.85-30.75c-3.56-2.06-5-2.21-5,2.68q.57,89.09.83,178.17c0,3.37,1.11,5.28,4.08,7q77.44,44.07,154.78,88.33c4.79,2.74,5,2.59,5-3q-.24-32.82-.54-65.63A1.57,1.57,0,0,0,255.88,328.38Z"/><path class="cls-4" d="M255.88,328.38c.33.55.67,1.09,1,1.63.94-2.09,3-2.79,4.79-3.82q44.54-26,89.14-51.83c3.94-2.27,6.57-4.4,6.49-9.82-.49-35.06-.53-70.12-.73-105.19,0-1.18-.13-2.37-.22-3.84-4,1.21-7,3.53-10.28,5.42-10.52,6.09-20.93,12.35-31.55,18.26-3.79,2.11-5.26,4.55-5.16,9,.38,17,.21,34,.42,51,0,3.21-1.09,5-3.86,6.56-14.93,8.51-29.69,17.31-44.63,25.81-3.27,1.86-4.62,3.92-4.53,7.8.32,14.92.26,29.85.33,44.78C257.09,325.69,257.66,327.39,255.88,328.38Z"/><path class="cls-3" d="M229.89,258.84c7.68,4.39,15.39,8.74,23,13.2,2.55,1.49,4,1.89,3.92-2q-.27-27.06-.2-54.12a4,4,0,0,0-2.49-4q-23.52-13.4-47-26.86c-2.87-1.65-3.9-1.16-3.87,2.3q.27,26.55.24,53.09c0,2.67,1.1,4.06,3.29,5.27C214.55,250,222.2,254.45,229.89,258.84Z"/><path class="cls-2" d="M282.27,167c-7.69-4.39-15.42-8.72-23-13.22-2.4-1.42-4.27-1.3-6.68.13Q230.4,167,208.06,179.81c-3.24,1.86-3.76,3-.12,5.06q22.92,12.88,45.67,26.09c2.66,1.55,4.76,1.15,7.22-.29q22-12.87,44.1-25.55c3.44-2,3.84-3.21,0-5.27C297.26,175.76,289.8,171.3,282.27,167Z"/><text class="cls-5" transform="translate(196.62 477.89)">CS3</text></svg>