<svg id="Layer_1" data-name="Layer 1" xmlns="http://www.w3.org/2000/svg" viewBox="0 0 800 682.57"><title>Swoosh X LandingLogo</title><polygon points="321.87 654.03 61.31 653.96 483.62 10.13 734.59 10.99 321.87 654.03"/><path class="cls-1" d="M795.08,524.54c0,1.79-.08,3.56-.08,5.34v7.92l-1.58,6.25c-4.78,15.48-14.5,27.85-24.69,39.93-34.48,40.84-77.12,70.4-126.74,89.69-39.15,15.21-76.79,10.61-112.5-11.35s-64.43-50.89-88.9-84.52c-6.84-9.4-13.34-19-19.69-28.74l0,0c-.1-.17-.21-.33-.31-.49l-128.2-235a.22.22,0,0,0,0-.08,8.38,8.38,0,0,0-.94-2.38q-8.46-15.42-17.13-30.74l-.08-.14c-25.27-44.66-51.88-88.49-80.82-130.92-11.86-17.36-27-31.42-43.39-44.28-5.48-4.31-10.68-8.94-16.55-12.76-8.18-5.29-16.61-6.17-25.6-2.22-21.48,9.42-38.19,24.39-51.33,43.62C50.68,142.2,45.58,151.21,40.16,160c-2.41,3.9-1.86,8.21-2.74,12.29-1.43,6.56-3.47,8.41-10,8.15-17-.7-30-18.27-26.68-35.78,3-15.76,11.9-28.29,21.6-40.4C57.25,60.7,101.34,29.47,153,9.1,193.25-6.76,231.7-1.62,268.23,21.31c38.74,24.33,69.09,57,94.83,94.28,6.12,8.88,11.94,17.88,17.94,27v0l2.71,4.48.1.19,29.81,52.3c11,20.41,21,41.34,32.93,61.29,7,11.75,12.47,24.44,18.74,36.64,7.12,13.82,14.39,27.56,21.85,41.82.15-.24.3-.47.47-.71l17.07,32.83a.06.06,0,0,1,0,0,8.32,8.32,0,0,0,.83,2.05c29.7,54,61.15,106.85,95.65,157.92,16.05,23.75,37.83,41.22,60.25,58.14,9,6.79,18.77,6.81,28.79,2,21.44-10.25,38.17-25.76,51-45.61,4.87-7.56,9.29-15.41,14.17-23,2.59-4,2.11-8.48,3-12.73,1.42-6.87,3.44-8.95,10.33-8.19,11.33,1.27,19.12,7.86,24.69,17.48.57,1.45,1.07,2.91,1.65,4.36C795,524.13,795.09,524.34,795.08,524.54Z"/></svg>